<svg xmlns="http://www.w3.org/2000/svg" xmlns:xlink="http://www.w3.org/1999/xlink" style="margin:auto;background:0 0;display:block;shape-rendering:auto" width="114" height="114" preserveAspectRatio="xMidYMid" viewBox="0 0 100 100"><g transform="rotate(0 50 50)"><rect width="10" height="20" x="40.5" y="6.5" fill="#009688" rx="9.5" ry="9.92"><animate attributeName="opacity" begin="-0.426829268292683s" dur="0.48780487804878053s" keyTimes="0;1" repeatCount="indefinite" values="1;0"/></rect></g><g transform="rotate(45 50 50)"><rect width="10" height="20" x="40.5" y="6.5" fill="#009688" rx="9.5" ry="9.92"><animate attributeName="opacity" begin="-0.3658536585365854s" dur="0.48780487804878053s" keyTimes="0;1" repeatCount="indefinite" values="1;0"/></rect></g><g transform="rotate(90 50 50)"><rect width="10" height="20" x="40.5" y="6.5" fill="#009688" rx="9.5" ry="9.92"><animate attributeName="opacity" begin="-0.30487804878048785s" dur="0.48780487804878053s" keyTimes="0;1" repeatCount="indefinite" values="1;0"/></rect></g><g transform="rotate(135 50 50)"><rect width="10" height="20" x="40.5" y="6.5" fill="#009688" rx="9.5" ry="9.92"><animate attributeName="opacity" begin="-0.24390243902439027s" dur="0.48780487804878053s" keyTimes="0;1" repeatCount="indefinite" values="1;0"/></rect></g><g transform="rotate(180 50 50)"><rect width="10" height="20" x="40.5" y="6.5" fill="#009688" rx="9.5" ry="9.92"><animate attributeName="opacity" begin="-0.1829268292682927s" dur="0.48780487804878053s" keyTimes="0;1" repeatCount="indefinite" values="1;0"/></rect></g><g transform="rotate(225 50 50)"><rect width="10" height="20" x="40.5" y="6.5" fill="#009688" rx="9.5" ry="9.92"><animate attributeName="opacity" begin="-0.12195121951219513s" dur="0.48780487804878053s" keyTimes="0;1" repeatCount="indefinite" values="1;0"/></rect></g><g transform="rotate(270 50 50)"><rect width="10" height="20" x="40.5" y="6.5" fill="#009688" rx="9.5" ry="9.92"><animate attributeName="opacity" begin="-0.06097560975609757s" dur="0.48780487804878053s" keyTimes="0;1" repeatCount="indefinite" values="1;0"/></rect></g><g transform="rotate(315 50 50)"><rect width="10" height="20" x="40.5" y="6.5" fill="#009688" rx="9.5" ry="9.92"><animate attributeName="opacity" begin="0s" dur="0.48780487804878053s" keyTimes="0;1" repeatCount="indefinite" values="1;0"/></rect></g></svg>